<mxfile host="app.diagrams.net" modified="2021-06-15T14:27:12.669Z" agent="5.0 (Windows NT 10.0; Win64; x64) AppleWebKit/537.36 (KHTML, like Gecko) Chrome/91.0.4472.101 Safari/537.36" etag="9P0jUBPI4hIK0pJLzN7N" version="14.7.8" type="github">
  <diagram id="dSG8B6Eht4wvkjzqXGSK" name="Page-1">
    <mxGraphModel dx="1695" dy="450" grid="1" gridSize="10" guides="1" tooltips="1" connect="1" arrows="1" fold="1" page="1" pageScale="1" pageWidth="827" pageHeight="1169" math="0" shadow="0">
      <root>
        <mxCell id="0" />
        <mxCell id="1" parent="0" />
        <mxCell id="zIF_zYgDypnE2-3MHX5e-1" value="Start" style="strokeWidth=2;html=1;shape=mxgraph.flowchart.start_2;whiteSpace=wrap;" parent="1" vertex="1">
          <mxGeometry x="350" y="40" width="70" height="70" as="geometry" />
        </mxCell>
        <mxCell id="zIF_zYgDypnE2-3MHX5e-2" value="Local Business" style="rounded=0;whiteSpace=wrap;html=1;" parent="1" vertex="1">
          <mxGeometry x="100" y="280" width="120" height="60" as="geometry" />
        </mxCell>
        <mxCell id="zIF_zYgDypnE2-3MHX5e-3" value="Tourist" style="rounded=0;whiteSpace=wrap;html=1;" parent="1" vertex="1">
          <mxGeometry x="554" y="280" width="120" height="60" as="geometry" />
        </mxCell>
        <mxCell id="zIF_zYgDypnE2-3MHX5e-5" value="" style="endArrow=classic;html=1;entryX=0.5;entryY=0;entryDx=0;entryDy=0;exitX=0.5;exitY=1;exitDx=0;exitDy=0;" parent="1" source="lEnVjNPbX00ONdFkdoIU-6" target="zIF_zYgDypnE2-3MHX5e-3" edge="1">
          <mxGeometry width="50" height="50" relative="1" as="geometry">
            <mxPoint x="430" y="190" as="sourcePoint" />
            <mxPoint x="440" y="560" as="targetPoint" />
          </mxGeometry>
        </mxCell>
        <mxCell id="zIF_zYgDypnE2-3MHX5e-6" value="" style="endArrow=classic;html=1;entryX=0.5;entryY=0;entryDx=0;entryDy=0;exitX=0.5;exitY=1;exitDx=0;exitDy=0;" parent="1" source="lEnVjNPbX00ONdFkdoIU-6" target="zIF_zYgDypnE2-3MHX5e-2" edge="1">
          <mxGeometry width="50" height="50" relative="1" as="geometry">
            <mxPoint x="330" y="210" as="sourcePoint" />
            <mxPoint x="440" y="560" as="targetPoint" />
          </mxGeometry>
        </mxCell>
        <mxCell id="zIF_zYgDypnE2-3MHX5e-7" value="Attractions" style="rounded=0;whiteSpace=wrap;html=1;" parent="1" vertex="1">
          <mxGeometry x="554" y="480" width="120" height="60" as="geometry" />
        </mxCell>
        <mxCell id="zIF_zYgDypnE2-3MHX5e-8" value="Hottest" style="rounded=0;whiteSpace=wrap;html=1;" parent="1" vertex="1">
          <mxGeometry x="370" y="480" width="120" height="60" as="geometry" />
        </mxCell>
        <mxCell id="zIF_zYgDypnE2-3MHX5e-9" value="Hotels" style="rounded=0;whiteSpace=wrap;html=1;" parent="1" vertex="1">
          <mxGeometry x="740" y="480" width="120" height="60" as="geometry" />
        </mxCell>
        <mxCell id="zIF_zYgDypnE2-3MHX5e-10" value="" style="endArrow=classic;html=1;exitX=0.5;exitY=1;exitDx=0;exitDy=0;entryX=0.5;entryY=0;entryDx=0;entryDy=0;" parent="1" source="zIF_zYgDypnE2-3MHX5e-3" target="zIF_zYgDypnE2-3MHX5e-8" edge="1">
          <mxGeometry width="50" height="50" relative="1" as="geometry">
            <mxPoint x="390" y="610" as="sourcePoint" />
            <mxPoint x="440" y="560" as="targetPoint" />
          </mxGeometry>
        </mxCell>
        <mxCell id="zIF_zYgDypnE2-3MHX5e-11" value="" style="endArrow=classic;html=1;exitX=0.5;exitY=1;exitDx=0;exitDy=0;entryX=0.5;entryY=0;entryDx=0;entryDy=0;" parent="1" source="zIF_zYgDypnE2-3MHX5e-3" target="zIF_zYgDypnE2-3MHX5e-7" edge="1">
          <mxGeometry width="50" height="50" relative="1" as="geometry">
            <mxPoint x="390" y="610" as="sourcePoint" />
            <mxPoint x="440" y="560" as="targetPoint" />
          </mxGeometry>
        </mxCell>
        <mxCell id="zIF_zYgDypnE2-3MHX5e-12" value="" style="endArrow=classic;html=1;exitX=0.5;exitY=1;exitDx=0;exitDy=0;entryX=0.5;entryY=0;entryDx=0;entryDy=0;" parent="1" source="zIF_zYgDypnE2-3MHX5e-3" target="zIF_zYgDypnE2-3MHX5e-9" edge="1">
          <mxGeometry width="50" height="50" relative="1" as="geometry">
            <mxPoint x="390" y="610" as="sourcePoint" />
            <mxPoint x="440" y="560" as="targetPoint" />
          </mxGeometry>
        </mxCell>
        <mxCell id="zIF_zYgDypnE2-3MHX5e-13" value="Upload" style="rounded=0;whiteSpace=wrap;html=1;" parent="1" vertex="1">
          <mxGeometry x="-130" y="480" width="120" height="60" as="geometry" />
        </mxCell>
        <mxCell id="zIF_zYgDypnE2-3MHX5e-14" value="Explore New Markets" style="rounded=0;whiteSpace=wrap;html=1;" parent="1" vertex="1">
          <mxGeometry x="50" y="480" width="120" height="60" as="geometry" />
        </mxCell>
        <mxCell id="zIF_zYgDypnE2-3MHX5e-15" value="Businesses" style="rounded=0;whiteSpace=wrap;html=1;" parent="1" vertex="1">
          <mxGeometry x="230" y="480" width="120" height="60" as="geometry" />
        </mxCell>
        <mxCell id="zIF_zYgDypnE2-3MHX5e-16" value="" style="endArrow=classic;html=1;exitX=0.5;exitY=1;exitDx=0;exitDy=0;entryX=0.5;entryY=0;entryDx=0;entryDy=0;" parent="1" source="zIF_zYgDypnE2-3MHX5e-32" target="zIF_zYgDypnE2-3MHX5e-15" edge="1">
          <mxGeometry width="50" height="50" relative="1" as="geometry">
            <mxPoint x="390" y="610" as="sourcePoint" />
            <mxPoint x="440" y="560" as="targetPoint" />
          </mxGeometry>
        </mxCell>
        <mxCell id="zIF_zYgDypnE2-3MHX5e-17" value="" style="endArrow=classic;html=1;exitX=0.5;exitY=1;exitDx=0;exitDy=0;entryX=0.5;entryY=0;entryDx=0;entryDy=0;" parent="1" source="zIF_zYgDypnE2-3MHX5e-32" target="zIF_zYgDypnE2-3MHX5e-14" edge="1">
          <mxGeometry width="50" height="50" relative="1" as="geometry">
            <mxPoint x="390" y="610" as="sourcePoint" />
            <mxPoint x="440" y="560" as="targetPoint" />
          </mxGeometry>
        </mxCell>
        <mxCell id="zIF_zYgDypnE2-3MHX5e-18" value="" style="endArrow=classic;html=1;exitX=0.5;exitY=1;exitDx=0;exitDy=0;entryX=0.5;entryY=0;entryDx=0;entryDy=0;" parent="1" source="zIF_zYgDypnE2-3MHX5e-32" target="zIF_zYgDypnE2-3MHX5e-13" edge="1">
          <mxGeometry width="50" height="50" relative="1" as="geometry">
            <mxPoint x="390" y="610" as="sourcePoint" />
            <mxPoint x="440" y="560" as="targetPoint" />
          </mxGeometry>
        </mxCell>
        <mxCell id="zIF_zYgDypnE2-3MHX5e-19" value="Database" style="strokeWidth=2;html=1;shape=mxgraph.flowchart.database;whiteSpace=wrap;" parent="1" vertex="1">
          <mxGeometry x="280" y="1050" width="60" height="60" as="geometry" />
        </mxCell>
        <mxCell id="zIF_zYgDypnE2-3MHX5e-20" value="Business Input" style="shape=process;whiteSpace=wrap;html=1;backgroundOutline=1;" parent="1" vertex="1">
          <mxGeometry x="-130" y="660" width="120" height="60" as="geometry" />
        </mxCell>
        <mxCell id="zIF_zYgDypnE2-3MHX5e-21" value="" style="endArrow=classic;html=1;exitX=0.5;exitY=1;exitDx=0;exitDy=0;entryX=0.5;entryY=0;entryDx=0;entryDy=0;" parent="1" source="zIF_zYgDypnE2-3MHX5e-13" target="zIF_zYgDypnE2-3MHX5e-20" edge="1">
          <mxGeometry width="50" height="50" relative="1" as="geometry">
            <mxPoint x="390" y="610" as="sourcePoint" />
            <mxPoint x="440" y="560" as="targetPoint" />
          </mxGeometry>
        </mxCell>
        <mxCell id="zIF_zYgDypnE2-3MHX5e-57" value="Input" style="edgeLabel;html=1;align=center;verticalAlign=middle;resizable=0;points=[];" parent="zIF_zYgDypnE2-3MHX5e-21" vertex="1" connectable="0">
          <mxGeometry x="-0.25" y="-3" relative="1" as="geometry">
            <mxPoint as="offset" />
          </mxGeometry>
        </mxCell>
        <mxCell id="zIF_zYgDypnE2-3MHX5e-22" value="" style="endArrow=classic;html=1;exitX=0.5;exitY=1;exitDx=0;exitDy=0;entryX=0.07;entryY=0.4;entryDx=0;entryDy=0;entryPerimeter=0;" parent="1" source="zIF_zYgDypnE2-3MHX5e-20" target="zIF_zYgDypnE2-3MHX5e-34" edge="1">
          <mxGeometry width="50" height="50" relative="1" as="geometry">
            <mxPoint x="390" y="610" as="sourcePoint" />
            <mxPoint x="440" y="560" as="targetPoint" />
          </mxGeometry>
        </mxCell>
        <mxCell id="zIF_zYgDypnE2-3MHX5e-53" value="Post Request" style="edgeLabel;html=1;align=center;verticalAlign=middle;resizable=0;points=[];" parent="zIF_zYgDypnE2-3MHX5e-22" vertex="1" connectable="0">
          <mxGeometry x="0.1502" y="4" relative="1" as="geometry">
            <mxPoint x="-1" as="offset" />
          </mxGeometry>
        </mxCell>
        <mxCell id="zIF_zYgDypnE2-3MHX5e-23" value="Fetch Request" style="endArrow=classic;html=1;entryX=0.5;entryY=1;entryDx=0;entryDy=0;exitX=0.5;exitY=0;exitDx=0;exitDy=0;" parent="1" source="zIF_zYgDypnE2-3MHX5e-27" target="zIF_zYgDypnE2-3MHX5e-15" edge="1">
          <mxGeometry width="50" height="50" relative="1" as="geometry">
            <mxPoint x="340" y="710" as="sourcePoint" />
            <mxPoint x="440" y="560" as="targetPoint" />
          </mxGeometry>
        </mxCell>
        <mxCell id="zIF_zYgDypnE2-3MHX5e-24" value="" style="endArrow=classic;html=1;entryX=0.5;entryY=1;entryDx=0;entryDy=0;exitX=0.5;exitY=0;exitDx=0;exitDy=0;" parent="1" source="zIF_zYgDypnE2-3MHX5e-27" target="zIF_zYgDypnE2-3MHX5e-8" edge="1">
          <mxGeometry width="50" height="50" relative="1" as="geometry">
            <mxPoint x="390" y="680" as="sourcePoint" />
            <mxPoint x="440" y="560" as="targetPoint" />
          </mxGeometry>
        </mxCell>
        <mxCell id="zIF_zYgDypnE2-3MHX5e-41" value="Fetch Request" style="edgeLabel;html=1;align=center;verticalAlign=middle;resizable=0;points=[];" parent="zIF_zYgDypnE2-3MHX5e-24" vertex="1" connectable="0">
          <mxGeometry x="0.1176" y="2" relative="1" as="geometry">
            <mxPoint x="2" y="-15" as="offset" />
          </mxGeometry>
        </mxCell>
        <mxCell id="zIF_zYgDypnE2-3MHX5e-25" value="" style="endArrow=classic;html=1;entryX=0.25;entryY=1;entryDx=0;entryDy=0;exitX=0.5;exitY=0;exitDx=0;exitDy=0;" parent="1" source="zIF_zYgDypnE2-3MHX5e-27" target="zIF_zYgDypnE2-3MHX5e-7" edge="1">
          <mxGeometry width="50" height="50" relative="1" as="geometry">
            <mxPoint x="390" y="740" as="sourcePoint" />
            <mxPoint x="440" y="560" as="targetPoint" />
          </mxGeometry>
        </mxCell>
        <mxCell id="zIF_zYgDypnE2-3MHX5e-42" value="Fetch Request" style="edgeLabel;html=1;align=center;verticalAlign=middle;resizable=0;points=[];" parent="zIF_zYgDypnE2-3MHX5e-25" vertex="1" connectable="0">
          <mxGeometry x="-0.2545" y="1" relative="1" as="geometry">
            <mxPoint x="63" y="-61" as="offset" />
          </mxGeometry>
        </mxCell>
        <mxCell id="zIF_zYgDypnE2-3MHX5e-27" value="Service Worker" style="shape=dataStorage;whiteSpace=wrap;html=1;fixedSize=1;" parent="1" vertex="1">
          <mxGeometry x="365" y="710" width="130" height="60" as="geometry" />
        </mxCell>
        <mxCell id="zIF_zYgDypnE2-3MHX5e-29" value="" style="endArrow=classic;html=1;exitX=0.625;exitY=0.2;exitDx=0;exitDy=0;exitPerimeter=0;entryX=0.5;entryY=1;entryDx=0;entryDy=0;" parent="1" source="zIF_zYgDypnE2-3MHX5e-34" target="zIF_zYgDypnE2-3MHX5e-27" edge="1">
          <mxGeometry width="50" height="50" relative="1" as="geometry">
            <mxPoint x="390" y="610" as="sourcePoint" />
            <mxPoint x="440" y="560" as="targetPoint" />
          </mxGeometry>
        </mxCell>
        <mxCell id="zIF_zYgDypnE2-3MHX5e-54" value="Fetch&amp;nbsp;Response" style="edgeLabel;html=1;align=center;verticalAlign=middle;resizable=0;points=[];" parent="zIF_zYgDypnE2-3MHX5e-29" vertex="1" connectable="0">
          <mxGeometry x="-0.373" relative="1" as="geometry">
            <mxPoint y="-1" as="offset" />
          </mxGeometry>
        </mxCell>
        <mxCell id="zIF_zYgDypnE2-3MHX5e-30" value="Google Maps" style="ellipse;shape=cloud;whiteSpace=wrap;html=1;" parent="1" vertex="1">
          <mxGeometry x="840" y="640" width="120" height="80" as="geometry" />
        </mxCell>
        <mxCell id="zIF_zYgDypnE2-3MHX5e-31" value="" style="endArrow=classic;html=1;exitX=0.5;exitY=1;exitDx=0;exitDy=0;entryX=0.4;entryY=0.1;entryDx=0;entryDy=0;entryPerimeter=0;" parent="1" source="zIF_zYgDypnE2-3MHX5e-9" target="zIF_zYgDypnE2-3MHX5e-30" edge="1">
          <mxGeometry width="50" height="50" relative="1" as="geometry">
            <mxPoint x="410" y="590" as="sourcePoint" />
            <mxPoint x="460" y="540" as="targetPoint" />
          </mxGeometry>
        </mxCell>
        <mxCell id="zIF_zYgDypnE2-3MHX5e-32" value="Passcode" style="shape=process;whiteSpace=wrap;html=1;backgroundOutline=1;" parent="1" vertex="1">
          <mxGeometry x="50" y="370" width="120" height="60" as="geometry" />
        </mxCell>
        <mxCell id="zIF_zYgDypnE2-3MHX5e-33" value="" style="endArrow=classic;html=1;exitX=0.5;exitY=1;exitDx=0;exitDy=0;entryX=0.5;entryY=0;entryDx=0;entryDy=0;" parent="1" source="zIF_zYgDypnE2-3MHX5e-2" target="zIF_zYgDypnE2-3MHX5e-32" edge="1">
          <mxGeometry width="50" height="50" relative="1" as="geometry">
            <mxPoint x="410" y="590" as="sourcePoint" />
            <mxPoint x="460" y="540" as="targetPoint" />
          </mxGeometry>
        </mxCell>
        <mxCell id="zIF_zYgDypnE2-3MHX5e-34" value="Server" style="ellipse;shape=cloud;whiteSpace=wrap;html=1;" parent="1" vertex="1">
          <mxGeometry x="244" y="850" width="120" height="80" as="geometry" />
        </mxCell>
        <mxCell id="zIF_zYgDypnE2-3MHX5e-35" value="" style="endArrow=classic;startArrow=classic;html=1;entryX=0.55;entryY=0.95;entryDx=0;entryDy=0;entryPerimeter=0;exitX=0.5;exitY=0;exitDx=0;exitDy=0;exitPerimeter=0;" parent="1" source="zIF_zYgDypnE2-3MHX5e-19" target="zIF_zYgDypnE2-3MHX5e-34" edge="1">
          <mxGeometry width="50" height="50" relative="1" as="geometry">
            <mxPoint x="410" y="590" as="sourcePoint" />
            <mxPoint x="460" y="540" as="targetPoint" />
          </mxGeometry>
        </mxCell>
        <mxCell id="zIF_zYgDypnE2-3MHX5e-36" value="Rating Input" style="shape=process;whiteSpace=wrap;html=1;backgroundOutline=1;" parent="1" vertex="1">
          <mxGeometry x="554" y="710" width="120" height="60" as="geometry" />
        </mxCell>
        <mxCell id="zIF_zYgDypnE2-3MHX5e-37" value="" style="endArrow=classic;html=1;exitX=0.5;exitY=1;exitDx=0;exitDy=0;entryX=0.5;entryY=0;entryDx=0;entryDy=0;" parent="1" source="zIF_zYgDypnE2-3MHX5e-7" target="zIF_zYgDypnE2-3MHX5e-36" edge="1">
          <mxGeometry width="50" height="50" relative="1" as="geometry">
            <mxPoint x="410" y="590" as="sourcePoint" />
            <mxPoint x="460" y="540" as="targetPoint" />
          </mxGeometry>
        </mxCell>
        <mxCell id="zIF_zYgDypnE2-3MHX5e-56" value="Input" style="edgeLabel;html=1;align=center;verticalAlign=middle;resizable=0;points=[];" parent="zIF_zYgDypnE2-3MHX5e-37" vertex="1" connectable="0">
          <mxGeometry x="0.2353" y="-1" relative="1" as="geometry">
            <mxPoint as="offset" />
          </mxGeometry>
        </mxCell>
        <mxCell id="zIF_zYgDypnE2-3MHX5e-38" value="" style="endArrow=classic;html=1;exitX=0.75;exitY=1;exitDx=0;exitDy=0;entryX=0.25;entryY=0;entryDx=0;entryDy=0;" parent="1" source="zIF_zYgDypnE2-3MHX5e-8" target="zIF_zYgDypnE2-3MHX5e-36" edge="1">
          <mxGeometry width="50" height="50" relative="1" as="geometry">
            <mxPoint x="410" y="590" as="sourcePoint" />
            <mxPoint x="460" y="540" as="targetPoint" />
          </mxGeometry>
        </mxCell>
        <mxCell id="zIF_zYgDypnE2-3MHX5e-43" value="Input" style="edgeLabel;html=1;align=center;verticalAlign=middle;resizable=0;points=[];" parent="zIF_zYgDypnE2-3MHX5e-38" vertex="1" connectable="0">
          <mxGeometry x="0.4418" y="3" relative="1" as="geometry">
            <mxPoint y="-1" as="offset" />
          </mxGeometry>
        </mxCell>
        <mxCell id="zIF_zYgDypnE2-3MHX5e-39" value="" style="endArrow=classic;html=1;exitX=0.5;exitY=1;exitDx=0;exitDy=0;entryX=0.875;entryY=0.5;entryDx=0;entryDy=0;entryPerimeter=0;" parent="1" source="zIF_zYgDypnE2-3MHX5e-36" target="zIF_zYgDypnE2-3MHX5e-34" edge="1">
          <mxGeometry width="50" height="50" relative="1" as="geometry">
            <mxPoint x="589" y="920" as="sourcePoint" />
            <mxPoint x="639" y="870" as="targetPoint" />
          </mxGeometry>
        </mxCell>
        <mxCell id="zIF_zYgDypnE2-3MHX5e-52" value="Post Request" style="edgeLabel;html=1;align=center;verticalAlign=middle;resizable=0;points=[];" parent="zIF_zYgDypnE2-3MHX5e-39" vertex="1" connectable="0">
          <mxGeometry x="-0.1505" y="-1" relative="1" as="geometry">
            <mxPoint as="offset" />
          </mxGeometry>
        </mxCell>
        <mxCell id="zIF_zYgDypnE2-3MHX5e-40" value="" style="endArrow=classic;html=1;exitX=0.4;exitY=0.1;exitDx=0;exitDy=0;exitPerimeter=0;entryX=0.5;entryY=1;entryDx=0;entryDy=0;" parent="1" source="zIF_zYgDypnE2-3MHX5e-34" target="zIF_zYgDypnE2-3MHX5e-15" edge="1">
          <mxGeometry width="50" height="50" relative="1" as="geometry">
            <mxPoint x="410" y="590" as="sourcePoint" />
            <mxPoint x="460" y="540" as="targetPoint" />
          </mxGeometry>
        </mxCell>
        <mxCell id="zIF_zYgDypnE2-3MHX5e-55" value="Get Request" style="edgeLabel;html=1;align=center;verticalAlign=middle;resizable=0;points=[];" parent="zIF_zYgDypnE2-3MHX5e-40" vertex="1" connectable="0">
          <mxGeometry x="0.0629" y="-1" relative="1" as="geometry">
            <mxPoint as="offset" />
          </mxGeometry>
        </mxCell>
        <mxCell id="zIF_zYgDypnE2-3MHX5e-45" value="&lt;br&gt;Local Offline Map" style="strokeWidth=2;html=1;shape=mxgraph.flowchart.database;whiteSpace=wrap;" parent="1" vertex="1">
          <mxGeometry x="730" y="640" width="70" height="80" as="geometry" />
        </mxCell>
        <mxCell id="zIF_zYgDypnE2-3MHX5e-48" value="" style="endArrow=classic;html=1;exitX=0.25;exitY=1;exitDx=0;exitDy=0;entryX=0.5;entryY=0;entryDx=0;entryDy=0;entryPerimeter=0;" parent="1" source="zIF_zYgDypnE2-3MHX5e-9" target="zIF_zYgDypnE2-3MHX5e-45" edge="1">
          <mxGeometry width="50" height="50" relative="1" as="geometry">
            <mxPoint x="810" y="550" as="sourcePoint" />
            <mxPoint x="898" y="658" as="targetPoint" />
          </mxGeometry>
        </mxCell>
        <mxCell id="zIF_zYgDypnE2-3MHX5e-49" value="&amp;nbsp;Web References&amp;nbsp;" style="ellipse;shape=cloud;whiteSpace=wrap;html=1;" parent="1" vertex="1">
          <mxGeometry x="50" y="600" width="120" height="80" as="geometry" />
        </mxCell>
        <mxCell id="zIF_zYgDypnE2-3MHX5e-50" value="" style="endArrow=classic;html=1;exitX=0.5;exitY=1;exitDx=0;exitDy=0;entryX=0.483;entryY=0.113;entryDx=0;entryDy=0;entryPerimeter=0;" parent="1" source="zIF_zYgDypnE2-3MHX5e-14" target="zIF_zYgDypnE2-3MHX5e-49" edge="1">
          <mxGeometry width="50" height="50" relative="1" as="geometry">
            <mxPoint x="109.5" y="550" as="sourcePoint" />
            <mxPoint x="109.5" y="600" as="targetPoint" />
          </mxGeometry>
        </mxCell>
        <mxCell id="lEnVjNPbX00ONdFkdoIU-2" value="Link" style="edgeLabel;html=1;align=center;verticalAlign=middle;resizable=0;points=[];" vertex="1" connectable="0" parent="1">
          <mxGeometry y="450" as="geometry">
            <mxPoint x="-12" y="2" as="offset" />
          </mxGeometry>
        </mxCell>
        <mxCell id="lEnVjNPbX00ONdFkdoIU-3" value="Link" style="edgeLabel;html=1;align=center;verticalAlign=middle;resizable=0;points=[];" vertex="1" connectable="0" parent="1">
          <mxGeometry x="10" y="460" as="geometry">
            <mxPoint x="186" y="-21" as="offset" />
          </mxGeometry>
        </mxCell>
        <mxCell id="lEnVjNPbX00ONdFkdoIU-4" value="Link" style="edgeLabel;html=1;align=center;verticalAlign=middle;resizable=0;points=[];" vertex="1" connectable="0" parent="1">
          <mxGeometry x="-60" y="480" as="geometry">
            <mxPoint x="186" y="-21" as="offset" />
          </mxGeometry>
        </mxCell>
        <mxCell id="lEnVjNPbX00ONdFkdoIU-5" value="Link" style="edgeLabel;html=1;align=center;verticalAlign=middle;resizable=0;points=[];" vertex="1" connectable="0" parent="1">
          <mxGeometry x="60" y="230" as="geometry">
            <mxPoint x="186" y="-21" as="offset" />
          </mxGeometry>
        </mxCell>
        <mxCell id="lEnVjNPbX00ONdFkdoIU-6" value="Home page" style="rounded=0;whiteSpace=wrap;html=1;" vertex="1" parent="1">
          <mxGeometry x="320" y="140" width="120" height="60" as="geometry" />
        </mxCell>
        <mxCell id="lEnVjNPbX00ONdFkdoIU-7" value="" style="endArrow=classic;html=1;entryX=0.5;entryY=0;entryDx=0;entryDy=0;exitX=0.5;exitY=1;exitDx=0;exitDy=0;" edge="1" parent="1" target="lEnVjNPbX00ONdFkdoIU-6">
          <mxGeometry width="50" height="50" relative="1" as="geometry">
            <mxPoint x="390" y="110" as="sourcePoint" />
            <mxPoint x="170" y="190" as="targetPoint" />
          </mxGeometry>
        </mxCell>
        <mxCell id="lEnVjNPbX00ONdFkdoIU-8" value="Link" style="edgeLabel;html=1;align=center;verticalAlign=middle;resizable=0;points=[];" vertex="1" connectable="0" parent="1">
          <mxGeometry x="330" y="240" as="geometry">
            <mxPoint x="186" y="-21" as="offset" />
          </mxGeometry>
        </mxCell>
        <mxCell id="lEnVjNPbX00ONdFkdoIU-9" value="Link" style="edgeLabel;html=1;align=center;verticalAlign=middle;resizable=0;points=[];" vertex="1" connectable="0" parent="1">
          <mxGeometry x="304" y="410" as="geometry">
            <mxPoint x="186" y="-21" as="offset" />
          </mxGeometry>
        </mxCell>
        <mxCell id="lEnVjNPbX00ONdFkdoIU-10" value="Link" style="edgeLabel;html=1;align=center;verticalAlign=middle;resizable=0;points=[];" vertex="1" connectable="0" parent="1">
          <mxGeometry x="450" y="450" as="geometry">
            <mxPoint x="186" y="-21" as="offset" />
          </mxGeometry>
        </mxCell>
        <mxCell id="lEnVjNPbX00ONdFkdoIU-11" value="Link" style="edgeLabel;html=1;align=center;verticalAlign=middle;resizable=0;points=[];" vertex="1" connectable="0" parent="1">
          <mxGeometry x="590" y="430" as="geometry">
            <mxPoint x="186" y="-21" as="offset" />
          </mxGeometry>
        </mxCell>
      </root>
    </mxGraphModel>
  </diagram>
</mxfile>
